<svg xmlns="http://www.w3.org/2000/svg" width="36" height="58" viewBox="0 0 36 58">
  <metadata><?xpacket begin="﻿" id="W5M0MpCehiHzreSzNTczkc9d"?>
<x:xmpmeta xmlns:x="adobe:ns:meta/" x:xmptk="Adobe XMP Core 5.6-c138 79.159824, 2016/09/14-01:09:01        ">
   <rdf:RDF xmlns:rdf="http://www.w3.org/1999/02/22-rdf-syntax-ns#">
      <rdf:Description rdf:about=""/>
   </rdf:RDF>
</x:xmpmeta>
                                                                                                    
                                                                                                    
                                                                                                    
                                                                                                    
                                                                                                    
                                                                                                    
                                                                                                    
                                                                                                    
                                                                                                    
                                                                                                    
                                                                                                    
                                                                                                    
                                                                                                    
                                                                                                    
                                                                                                    
                                                                                                    
                                                                                                    
                                                                                                    
                                                                                                    
                                                                                                    
                           
<?xpacket end="w"?></metadata>
<defs>
    <style>
      .cls-1 {
        fill: #fff;
        fill-rule: evenodd;
      }
    </style>
  </defs>
  <path id="мышка" class="cls-1" d="M974.339,1137.56c-3.169-3.69-7.993-5.56-14.339-5.56s-11.171,1.87-14.339,5.56A15.972,15.972,0,0,0,942,1147.89v26.22a15.932,15.932,0,0,0,3.661,10.32c3.168,3.7,7.993,5.57,14.339,5.57s11.17-1.87,14.339-5.57A15.937,15.937,0,0,0,978,1174.11v-26.22A15.977,15.977,0,0,0,974.339,1137.56ZM960,1152.21a2.385,2.385,0,0,1-2.385-2.37v-5.08a2.385,2.385,0,0,1,4.77,0v5.08A2.385,2.385,0,0,1,960,1152.21Zm16.117,21.9c0,2.34-.777,14.02-16.117,14.02s-16.118-11.68-16.118-14.02v-26.22c0-2.29.748-13.53,15.176-14v6.73a4.258,4.258,0,0,0-3.326,4.14v5.08a4.256,4.256,0,0,0,3.326,4.13v7.69a0.942,0.942,0,0,0,1.883,0v-7.69a4.256,4.256,0,0,0,3.327-4.13v-5.08a4.258,4.258,0,0,0-3.327-4.14v-6.73c14.429,0.47,15.176,11.71,15.176,14v26.22Z" transform="translate(-942 -1132)"/>
</svg>
