<svg xmlns="http://www.w3.org/2000/svg" width="70" height="56" viewBox="0 0 70 56">
  <metadata><?xpacket begin="﻿" id="W5M0MpCehiHzreSzNTczkc9d"?>
<x:xmpmeta xmlns:x="adobe:ns:meta/" x:xmptk="Adobe XMP Core 5.6-c138 79.159824, 2016/09/14-01:09:01        ">
   <rdf:RDF xmlns:rdf="http://www.w3.org/1999/02/22-rdf-syntax-ns#">
      <rdf:Description rdf:about=""/>
   </rdf:RDF>
</x:xmpmeta>
                                                                                                    
                                                                                                    
                                                                                                    
                                                                                                    
                                                                                                    
                                                                                                    
                                                                                                    
                                                                                                    
                                                                                                    
                                                                                                    
                                                                                                    
                                                                                                    
                                                                                                    
                                                                                                    
                                                                                                    
                                                                                                    
                                                                                                    
                                                                                                    
                                                                                                    
                                                                                                    
                           
<?xpacket end="w"?></metadata>
<defs>
    <style>
      .cls-1 {
        fill: #363636;
        fill-rule: evenodd;
      }
    </style>
  </defs>
  <path id="Forma_1" data-name="Forma 1" class="cls-1" d="M478.585,1576h-63.17a3.414,3.414,0,0,0-3.415,3.4v38.57a3.417,3.417,0,0,0,3.415,3.41h23.869l-1,7.54h-4.254a1.54,1.54,0,1,0,0,3.08h25.93a1.54,1.54,0,1,0,0-3.08h-4.254l-1-7.54h23.869a3.417,3.417,0,0,0,3.415-3.41V1579.4A3.414,3.414,0,0,0,478.585,1576Zm-63.17,3.08h63.17a0.326,0.326,0,0,1,.322.32v32.58H415.093V1579.4A0.326,0.326,0,0,1,415.415,1579.08Zm37.176,49.84H441.409l0.994-7.54H451.6Zm25.994-10.62h-63.17a0.328,0.328,0,0,1-.322-0.33v-2.9h63.814v2.9A0.328,0.328,0,0,1,478.585,1618.3Zm-42.244-10.49h21.318a4.724,4.724,0,0,0,4.73-4.71v-14.46a4.732,4.732,0,0,0-4.73-4.72H436.341a4.732,4.732,0,0,0-4.73,4.72v14.46A4.724,4.724,0,0,0,436.341,1607.81Zm-1.637-19.18a1.641,1.641,0,0,1,1.637-1.63h21.318a1.641,1.641,0,0,1,1.637,1.63v14.47a1.635,1.635,0,0,1-1.637,1.63H436.341a1.635,1.635,0,0,1-1.637-1.63v-14.47Zm9.506,12.63a1.6,1.6,0,0,0,1.547,0l7.044-4.06a1.527,1.527,0,0,0,.774-1.33,1.555,1.555,0,0,0-.774-1.34l-7.044-4.05a1.547,1.547,0,0,0-2.32,1.33v8.11A1.556,1.556,0,0,0,444.21,1601.26Zm2.32-6.78,2.405,1.39-2.405,1.38v-2.77Z" transform="translate(-412 -1576)"/>
</svg>
